<svg width="657.9px" height="121.4px" xmlns="http://www.w3.org/2000/svg" viewBox="-78.94687499999998 14.300000000000004 657.89375 121.39999999999999" style="background: rgb(0, 85, 165)" preserveAspectRatio="xMidYMid"><defs><linearGradient id="editing-sticker-gradient" x1="0.5" y1="0.2" x2="0.5" y2="0.8"><stop offset="0" stop-color="#45aee7"></stop><stop offset="1" stop-color="#bda0b2"></stop></linearGradient><filter id="editing-sticker" x="-100%" y="-100%" width="300%" height="300%"><feMorphology operator="erode" radius="1" in="SourceAlpha" result="alpha-erode"></feMorphology><feConvolveMatrix order="3,3" divisor="1" kernelMatrix="0 1 0 1 1 1 0 1 0" in="alpha-erode" result="alpha-round"></feConvolveMatrix><feMorphology operator="dilate" radius="3.5" in="alpha-round" result="dilate-shadow"></feMorphology><feGaussianBlur in="dilate-shadow" stdDeviation="1.5" result="shadow"></feGaussianBlur><feFlood flood-color="#fff" result="flood-sticker"></feFlood><feComposite operator="in" in="flood-sticker" in2="alpha-round" result="comp-sticker"></feComposite><feMorphology operator="dilate" radius="3" in="comp-sticker" result="morph-sticker"></feMorphology><feConvolveMatrix order="3,3" divisor="1" kernelMatrix="0 1 0 1 1 1 0 1 0" in="morph-sticker" result="sticker"></feConvolveMatrix><feMerge><feMergeNode in="shadow"></feMergeNode><feMergeNode in="sticker"></feMergeNode><feMergeNode in="SourceGraphic"></feMergeNode></feMerge></filter></defs><g filter="url(#editing-sticker)"><g transform="matrix(1.4,0,0,1.4,-54.4,157.4)"><path d="M 6.3 -42.2 L -7.6 -42.2 L 0.5 -84.5 L 14.6 -84.5 L 6.3 -42.2 Z M 62.1 -41 L 62.1 -41 L 62.1 -41 Q 54.3 -41 54.3 -47 L 54.3 -47 L 54.3 -47 Q 54.3 -49.6 55.4 -54.7 L 55.4 -54.7 L 55.4 -54.7 Q 56.6 -59.8 56.9 -61.8 L 56.9 -61.8 L 56.9 -61.8 Q 57.8 -66.5 57.8 -68 L 57.8 -68 L 57.8 -68 Q 57.8 -71.2 55.4 -71.2 L 55.4 -71.2 L 55.4 -71.2 Q 53.8 -71.2 52.3 -69 L 52.3 -69 L 52.3 -69 Q 50.7 -66.8 50 -62.4 L 50 -62.4 L 46.1 -42.2 L 33.6 -41 L 37 -58.4 L 37 -58.4 Q 37.6 -61.3 38.1 -64.5 L 38.1 -64.5 L 38.1 -64.5 Q 38.6 -67.8 38.6 -68.3 L 38.6 -68.3 L 38.6 -68.3 Q 38.6 -71.2 36.5 -71.2 L 36.5 -71.2 L 36.5 -71.2 Q 35 -71.2 33.4 -69.1 L 33.4 -69.1 L 33.4 -69.1 Q 31.8 -66.9 30.9 -62.4 L 30.9 -62.4 L 27 -42.2 L 14.4 -41 L 21.1 -74.9 L 31.5 -76.2 L 30.4 -69.7 L 30.4 -69.7 Q 32.1 -73.2 35.2 -74.7 L 35.2 -74.7 L 35.2 -74.7 Q 38.2 -76.2 43 -76.2 L 43 -76.2 L 43 -76.2 Q 45.8 -76.2 47.6 -74.8 L 47.6 -74.8 L 47.6 -74.8 Q 49.4 -73.5 50 -71.3 L 50 -71.3 L 50 -71.3 Q 51 -73.5 53.8 -74.9 L 53.8 -74.9 L 53.8 -74.9 Q 56.6 -76.2 60 -76.2 L 60 -76.2 L 60 -76.2 Q 63.5 -76.2 65.2 -75.4 L 65.2 -75.4 L 65.2 -75.4 Q 66.9 -74.7 67.9 -73.5 L 67.9 -73.5 L 67.9 -73.5 Q 69.6 -71.2 69.6 -67.1 L 69.6 -67.1 L 69.6 -67.1 Q 69.6 -63.1 67.9 -54.7 L 67.9 -54.7 L 67.9 -54.7 Q 67 -50.6 67 -49.1 L 67 -49.1 L 67 -49.1 Q 67 -47.6 67.8 -46.7 L 67.8 -46.7 L 67.8 -46.7 Q 68.7 -45.8 70 -45.7 L 70 -45.7 L 70 -45.7 Q 69.4 -43.5 67.1 -42.2 L 67.1 -42.2 L 67.1 -42.2 Q 64.9 -41 62.1 -41 Z M 77.7 -44.2 L 77.7 -44.2 L 77.7 -44.2 Q 76.2 -45.8 75.5 -48.5 L 75.5 -48.5 L 75.5 -48.5 Q 74.9 -51.1 74.9 -55.4 L 74.9 -55.4 L 74.9 -55.4 Q 74.9 -59.7 76.3 -63.6 L 76.3 -63.6 L 76.3 -63.6 Q 77.8 -67.5 80.5 -70.3 L 80.5 -70.3 L 80.5 -70.3 Q 86 -76.2 95.1 -76.2 L 95.1 -76.2 L 95.1 -76.2 Q 98.3 -76.2 100.7 -75.1 L 100.7 -75.1 L 111.7 -76.2 L 106.9 -51.2 L 106.9 -51.2 Q 106.7 -50.4 106.7 -49 L 106.7 -49 L 106.7 -49 Q 106.7 -47.6 107.6 -46.7 L 107.6 -46.7 L 107.6 -46.7 Q 108.5 -45.8 109.7 -45.7 L 109.7 -45.7 L 109.7 -45.7 Q 109.1 -43.5 106.8 -42.2 L 106.8 -42.2 L 106.8 -42.2 Q 104.4 -41 101.8 -41 L 101.8 -41 L 101.8 -41 Q 99.2 -41 97.4 -42 L 97.4 -42 L 97.4 -42 Q 95.7 -42.9 95.1 -44.6 L 95.1 -44.6 L 95.1 -44.6 Q 94.1 -43 91.9 -42 L 91.9 -42 L 91.9 -42 Q 89.8 -41 86.9 -41 L 86.9 -41 L 86.9 -41 Q 83.9 -41 81.6 -41.7 L 81.6 -41.7 L 81.6 -41.7 Q 79.2 -42.5 77.7 -44.2 Z M 91.2 -70.1 L 91.2 -70.1 L 91.2 -70.1 Q 90.5 -69 89.8 -67 L 89.8 -67 L 89.8 -67 Q 89.2 -65.1 88.1 -59.9 L 88.1 -59.9 L 88.1 -59.9 Q 87.1 -54.7 87.1 -50.9 L 87.1 -50.9 L 87.1 -50.9 Q 87.1 -47.2 87.7 -46.1 L 87.7 -46.1 L 87.7 -46.1 Q 88.2 -45.1 89.3 -45.1 L 89.3 -45.1 L 89.3 -45.1 Q 91.3 -45.1 92.8 -47 L 92.8 -47 L 92.8 -47 Q 94.3 -49 94.9 -52.4 L 94.9 -52.4 L 98.3 -71.2 L 98.3 -71.2 Q 96.9 -72.3 95.4 -72.3 L 95.4 -72.3 L 95.4 -72.3 Q 93.8 -72.3 92.9 -71.8 L 92.9 -71.8 L 92.9 -71.8 Q 91.9 -71.3 91.2 -70.1 Z M 119.4 -69 L 119.4 -69 L 119.4 -69 Q 121.6 -72.1 124.9 -74.1 L 124.9 -74.1 L 124.9 -74.1 Q 128.2 -76.2 132.2 -76.2 L 132.2 -76.2 L 132.2 -76.2 Q 136.2 -76.2 138.2 -74.9 L 138.2 -74.9 L 150.7 -76.2 L 146.3 -51.6 L 146.3 -51.6 Q 144.1 -39 139.4 -34.1 L 139.4 -34.1 L 139.4 -34.1 Q 134.8 -29.4 126 -29.4 L 126 -29.4 L 126 -29.4 Q 119.3 -29.4 115.4 -31.6 L 115.4 -31.6 L 115.4 -31.6 Q 111.6 -33.7 111.6 -37.2 L 111.6 -37.2 L 111.6 -37.2 Q 111.6 -39.8 113.6 -41.3 L 113.6 -41.3 L 113.6 -41.3 Q 115.6 -42.8 118.6 -42.8 L 118.6 -42.8 L 118.6 -42.8 Q 121.3 -42.8 123.4 -41.6 L 123.4 -41.6 L 123.4 -41.6 Q 124.6 -41 125.2 -40.1 L 125.2 -40.1 L 125.2 -40.1 Q 123.7 -38.8 123.7 -36.7 L 123.7 -36.7 L 123.7 -36.7 Q 123.7 -33.9 126.2 -33.9 L 126.2 -33.9 L 126.2 -33.9 Q 130.5 -33.9 133 -44 L 133 -44 L 133 -44 Q 133.7 -46.8 134.2 -49.5 L 134.2 -49.5 L 134.2 -49.5 Q 131.4 -46 124.8 -46 L 124.8 -46 L 124.8 -46 Q 120.3 -46 117.7 -48.2 L 117.7 -48.2 L 117.7 -48.2 Q 115 -50.4 115 -55.5 L 115 -55.5 L 115 -55.5 Q 115 -58.7 116.1 -62.3 L 116.1 -62.3 L 116.1 -62.3 Q 117.2 -65.9 119.4 -69 Z M 127.7 -55.3 L 127.7 -55.3 L 127.7 -55.3 Q 127.7 -50.9 130 -50.9 L 130 -50.9 L 130 -50.9 Q 131.5 -50.9 133 -52.6 L 133 -52.6 L 133 -52.6 Q 134.1 -54 134.6 -55.9 L 134.6 -55.9 L 137.8 -72.4 L 137.8 -72.4 Q 137.5 -72.5 137.2 -72.6 L 137.2 -72.6 L 137.2 -72.6 Q 136.6 -72.8 135.7 -72.8 L 135.7 -72.8 L 135.7 -72.8 Q 131.8 -72.8 129.5 -66.4 L 129.5 -66.4 L 129.5 -66.4 Q 127.7 -61.4 127.7 -55.3 Z M 179.1 -53.1 L 179.1 -53.1 L 179.1 -53.1 Q 180.7 -52 180.7 -49.6 L 180.7 -49.6 L 180.7 -49.6 Q 180.7 -47.2 179.5 -45.6 L 179.5 -45.6 L 179.5 -45.6 Q 178.3 -44.1 176.3 -43.1 L 176.3 -43.1 L 176.3 -43.1 Q 172.2 -41 167.8 -41 L 167.8 -41 L 167.8 -41 Q 163.4 -41 160.8 -41.9 L 160.8 -41.9 L 160.8 -41.9 Q 158.2 -42.9 156.5 -44.7 L 156.5 -44.7 L 156.5 -44.7 Q 153.1 -48.1 153.1 -54.3 L 153.1 -54.3 L 153.1 -54.3 Q 153.1 -63.9 158.3 -69.8 L 158.3 -69.8 L 158.3 -69.8 Q 163.9 -76.2 173.7 -76.2 L 173.7 -76.2 L 173.7 -76.2 Q 179.8 -76.2 182.8 -73.6 L 182.8 -73.6 L 182.8 -73.6 Q 185.1 -71.7 185.1 -68.5 L 185.1 -68.5 L 185.1 -68.5 Q 185.1 -57.3 165.6 -57.3 L 165.6 -57.3 L 165.6 -57.3 Q 165.4 -55.6 165.4 -54.2 L 165.4 -54.2 L 165.4 -54.2 Q 165.4 -51.3 166.7 -50.1 L 166.7 -50.1 L 166.7 -50.1 Q 168 -49 170.4 -49 L 170.4 -49 L 170.4 -49 Q 172.8 -49 175.4 -50.1 L 175.4 -50.1 L 175.4 -50.1 Q 178 -51.3 179.1 -53.1 Z M 166.1 -60 L 166.1 -60 L 166.1 -60 Q 170.6 -60 173.2 -62.9 L 173.2 -62.9 L 173.2 -62.9 Q 175.8 -65.5 175.8 -69.8 L 175.8 -69.8 L 175.8 -69.8 Q 175.8 -71.3 175.3 -72.1 L 175.3 -72.1 L 175.3 -72.1 Q 174.8 -72.9 173.7 -72.9 L 173.7 -72.9 L 173.7 -72.9 Q 172.6 -72.9 171.7 -72.5 L 171.7 -72.5 L 171.7 -72.5 Q 170.7 -72.1 169.8 -70.7 L 169.8 -70.7 L 169.8 -70.7 Q 167.4 -67.5 166.1 -60 Z M 206.4 -64.7 L 206.4 -64.7 L 206.4 -64.7 Q 207.3 -67.1 207.3 -69.1 L 207.3 -69.1 L 207.3 -69.1 Q 207.3 -72.9 204.2 -72.9 L 204.2 -72.9 L 204.2 -72.9 Q 202.6 -72.9 201.3 -71.5 L 201.3 -71.5 L 201.3 -71.5 Q 200 -70 200 -68.2 L 200 -68.2 L 200 -68.2 Q 200 -66.9 201 -65.9 L 201 -65.9 L 201 -65.9 Q 202.5 -64.5 206.2 -62.2 L 206.2 -62.2 L 206.2 -62.2 Q 210 -59.9 211.5 -58 L 211.5 -58 L 211.5 -58 Q 212.9 -56.1 212.9 -53.5 L 212.9 -53.5 L 212.9 -53.5 Q 212.9 -50.9 211.7 -48.6 L 211.7 -48.6 L 211.7 -48.6 Q 210.4 -46.2 208.2 -44.5 L 208.2 -44.5 L 208.2 -44.5 Q 203.4 -41 195.7 -41 L 195.7 -41 L 195.7 -41 Q 191.5 -41 188.3 -43.1 L 188.3 -43.1 L 188.3 -43.1 Q 185.1 -45.3 185.1 -47.7 L 185.1 -47.7 L 185.1 -47.7 Q 185.1 -50.2 187 -51.7 L 187 -51.7 L 187 -51.7 Q 188.8 -53.2 191.5 -53.2 L 191.5 -53.2 L 191.5 -53.2 Q 194.2 -53.2 195.8 -52.2 L 195.8 -52.2 L 195.8 -52.2 Q 195 -50.1 195 -48.6 L 195 -48.6 L 195 -48.6 Q 195 -44.4 198.6 -44.4 L 198.6 -44.4 L 198.6 -44.4 Q 200.1 -44.4 201.1 -45.4 L 201.1 -45.4 L 201.1 -45.4 Q 202.2 -46.3 202.2 -48 L 202.2 -48 L 202.2 -48 Q 202.2 -51.3 196.6 -54.7 L 196.6 -54.7 L 196.6 -54.7 Q 192.2 -57.7 191.1 -58.8 L 191.1 -58.8 L 191.1 -58.8 Q 189.4 -60.9 189.4 -63.4 L 189.4 -63.4 L 189.4 -63.4 Q 189.4 -66 190.6 -68.4 L 190.6 -68.4 L 190.6 -68.4 Q 191.8 -70.9 194.1 -72.6 L 194.1 -72.6 L 194.1 -72.6 Q 198.8 -76.2 206.9 -76.2 L 206.9 -76.2 L 206.9 -76.2 Q 211 -76.2 213.5 -74.5 L 213.5 -74.5 L 213.5 -74.5 Q 216 -72.8 216 -70 L 216 -70 L 216 -70 Q 216 -67.2 214.3 -65.6 L 214.3 -65.6 L 214.3 -65.6 Q 212.6 -64 209.5 -64 L 209.5 -64 L 209.5 -64 Q 207.4 -64 206.4 -64.7 Z M 257.4 -62.9 L 270.4 -64 L 270.4 -64 Q 265.8 -53.9 265.8 -42.2 L 265.8 -42.2 L 265.8 -42.2 Q 264 -41 261.5 -41 L 261.5 -41 L 261.5 -41 Q 259 -41 257.4 -42.1 L 257.4 -42.1 L 257.4 -42.1 Q 255.8 -43.3 255.5 -44.5 L 255.5 -44.5 L 255.5 -44.5 Q 253.9 -42.9 251.3 -41.9 L 251.3 -41.9 L 251.3 -41.9 Q 248.7 -41 245.9 -41 L 245.9 -41 L 245.9 -41 Q 243.2 -41 240.8 -41.9 L 240.8 -41.9 L 240.8 -41.9 Q 238.4 -42.8 236.5 -44.7 L 236.5 -44.7 L 236.5 -44.7 Q 232.4 -49.1 232.4 -57.3 L 232.4 -57.3 L 232.4 -57.3 Q 232.4 -70.1 239.3 -77.8 L 239.3 -77.8 L 239.3 -77.8 Q 246.3 -85.8 258.8 -85.8 L 258.8 -85.8 L 258.8 -85.8 Q 267.4 -85.8 270.5 -81.3 L 270.5 -81.3 L 270.5 -81.3 Q 271.5 -79.9 271.5 -78.2 L 271.5 -78.2 L 271.5 -78.2 Q 271.5 -76.5 270.7 -75 L 270.7 -75 L 270.7 -75 Q 270 -73.6 268.8 -72.5 L 268.8 -72.5 L 268.8 -72.5 Q 266.1 -69.9 262.7 -69.9 L 262.7 -69.9 L 262.7 -69.9 Q 261.4 -69.9 260.1 -70.3 L 260.1 -70.3 L 260.1 -70.3 Q 260.3 -72.3 260.3 -74.5 L 260.3 -74.5 L 260.3 -74.5 Q 260.3 -76.7 260.2 -77.8 L 260.2 -77.8 L 260.2 -77.8 Q 260 -78.8 259.6 -79.6 L 259.6 -79.6 L 259.6 -79.6 Q 258.8 -81.3 257 -81.3 L 257 -81.3 L 257 -81.3 Q 255.1 -81.3 253.1 -79.4 L 253.1 -79.4 L 253.1 -79.4 Q 251.1 -77.4 249.5 -74.2 L 249.5 -74.2 L 249.5 -74.2 Q 246 -67.1 246 -58.4 L 246 -58.4 L 246 -58.4 Q 246 -54.5 247.5 -51.7 L 247.5 -51.7 L 247.5 -51.7 Q 249.2 -48.6 252.1 -48.6 L 252.1 -48.6 L 252.1 -48.6 Q 253.2 -48.6 254.1 -49.1 L 254.1 -49.1 L 254.1 -49.1 Q 255 -49.6 255.4 -50 L 255.4 -50 L 257.4 -62.9 Z M 276.3 -44.2 L 276.3 -44.2 L 276.3 -44.2 Q 274.8 -45.8 274.1 -48.5 L 274.1 -48.5 L 274.1 -48.5 Q 273.4 -51.1 273.4 -55.4 L 273.4 -55.4 L 273.4 -55.4 Q 273.4 -59.7 274.9 -63.6 L 274.9 -63.6 L 274.9 -63.6 Q 276.4 -67.5 279.1 -70.3 L 279.1 -70.3 L 279.1 -70.3 Q 284.6 -76.2 293.7 -76.2 L 293.7 -76.2 L 293.7 -76.2 Q 296.9 -76.2 299.3 -75.1 L 299.3 -75.1 L 310.2 -76.2 L 305.5 -51.2 L 305.5 -51.2 Q 305.3 -50.4 305.3 -49 L 305.3 -49 L 305.3 -49 Q 305.3 -47.6 306.2 -46.7 L 306.2 -46.7 L 306.2 -46.7 Q 307 -45.8 308.3 -45.7 L 308.3 -45.7 L 308.3 -45.7 Q 307.7 -43.5 305.4 -42.2 L 305.4 -42.2 L 305.4 -42.2 Q 303 -41 300.4 -41 L 300.4 -41 L 300.4 -41 Q 297.8 -41 296 -42 L 296 -42 L 296 -42 Q 294.2 -42.9 293.7 -44.6 L 293.7 -44.6 L 293.7 -44.6 Q 292.7 -43 290.5 -42 L 290.5 -42 L 290.5 -42 Q 288.4 -41 285.4 -41 L 285.4 -41 L 285.4 -41 Q 282.5 -41 280.2 -41.7 L 280.2 -41.7 L 280.2 -41.7 Q 277.8 -42.5 276.3 -44.2 Z M 289.8 -70.1 L 289.8 -70.1 L 289.8 -70.1 Q 289.1 -69 288.4 -67 L 288.4 -67 L 288.4 -67 Q 287.8 -65.1 286.7 -59.9 L 286.7 -59.9 L 286.7 -59.9 Q 285.7 -54.7 285.7 -50.9 L 285.7 -50.9 L 285.7 -50.9 Q 285.7 -47.2 286.2 -46.1 L 286.2 -46.1 L 286.2 -46.1 Q 286.8 -45.1 287.8 -45.1 L 287.8 -45.1 L 287.8 -45.1 Q 289.9 -45.1 291.4 -47 L 291.4 -47 L 291.4 -47 Q 292.9 -49 293.5 -52.4 L 293.5 -52.4 L 296.9 -71.2 L 296.9 -71.2 Q 295.5 -72.3 294 -72.3 L 294 -72.3 L 294 -72.3 Q 292.4 -72.3 291.5 -71.8 L 291.5 -71.8 L 291.5 -71.8 Q 290.5 -71.3 289.8 -70.1 Z M 329 -45.8 L 329 -45.8 L 329 -45.8 Q 327 -41 320.7 -41 L 320.7 -41 L 320.7 -41 Q 317.5 -41 315.4 -43.2 L 315.4 -43.2 L 315.4 -43.2 Q 313.8 -45.1 313.8 -47.2 L 313.8 -47.2 L 313.8 -47.2 Q 313.8 -52 316 -62.5 L 316 -62.5 L 320.7 -87 L 333.7 -88.3 L 327.5 -55.9 L 327.5 -55.9 Q 326.4 -51.2 326.4 -49.5 L 326.4 -49.5 L 326.4 -49.5 Q 326.4 -45.9 329 -45.8 Z M 349.7 -45.8 L 349.7 -45.8 L 349.7 -45.8 Q 347.8 -41 341.4 -41 L 341.4 -41 L 341.4 -41 Q 338.2 -41 336.2 -43.2 L 336.2 -43.2 L 336.2 -43.2 Q 334.5 -45.1 334.5 -47.2 L 334.5 -47.2 L 334.5 -47.2 Q 334.5 -52 336.7 -62.5 L 336.7 -62.5 L 341.4 -87 L 354.4 -88.3 L 348.2 -55.9 L 348.2 -55.9 Q 347.1 -51.2 347.1 -49.5 L 347.1 -49.5 L 347.1 -49.5 Q 347.1 -45.9 349.7 -45.8 Z M 381.1 -53.1 L 381.1 -53.1 L 381.1 -53.1 Q 382.7 -52 382.7 -49.6 L 382.7 -49.6 L 382.7 -49.6 Q 382.7 -47.2 381.5 -45.6 L 381.5 -45.6 L 381.5 -45.6 Q 380.3 -44.1 378.3 -43.1 L 378.3 -43.1 L 378.3 -43.1 Q 374.2 -41 369.8 -41 L 369.8 -41 L 369.8 -41 Q 365.4 -41 362.8 -41.9 L 362.8 -41.9 L 362.8 -41.9 Q 360.2 -42.9 358.4 -44.7 L 358.4 -44.7 L 358.4 -44.7 Q 355 -48.1 355 -54.3 L 355 -54.3 L 355 -54.3 Q 355 -63.9 360.3 -69.8 L 360.3 -69.8 L 360.3 -69.8 Q 365.9 -76.2 375.7 -76.2 L 375.7 -76.2 L 375.7 -76.2 Q 381.8 -76.2 384.8 -73.6 L 384.8 -73.6 L 384.8 -73.6 Q 387 -71.7 387 -68.5 L 387 -68.5 L 387 -68.5 Q 387 -57.3 367.6 -57.3 L 367.6 -57.3 L 367.6 -57.3 Q 367.3 -55.6 367.3 -54.2 L 367.3 -54.2 L 367.3 -54.2 Q 367.3 -51.3 368.6 -50.1 L 368.6 -50.1 L 368.6 -50.1 Q 370 -49 372.4 -49 L 372.4 -49 L 372.4 -49 Q 374.8 -49 377.4 -50.1 L 377.4 -50.1 L 377.4 -50.1 Q 380 -51.3 381.1 -53.1 Z M 368 -60 L 368 -60 L 368 -60 Q 372.6 -60 375.2 -62.9 L 375.2 -62.9 L 375.2 -62.9 Q 377.8 -65.5 377.8 -69.8 L 377.8 -69.8 L 377.8 -69.8 Q 377.8 -71.3 377.3 -72.1 L 377.3 -72.1 L 377.3 -72.1 Q 376.7 -72.9 375.7 -72.9 L 375.7 -72.9 L 375.7 -72.9 Q 374.6 -72.9 373.6 -72.5 L 373.6 -72.5 L 373.6 -72.5 Q 372.7 -72.1 371.8 -70.7 L 371.8 -70.7 L 371.8 -70.7 Q 369.4 -67.5 368 -60 Z M 409.3 -60.2 L 409.3 -60.2 L 409.3 -60.2 Q 411.6 -64.3 411.6 -68.5 L 411.6 -68.5 L 411.6 -68.5 Q 411.6 -71.2 409.6 -71.2 L 409.6 -71.2 L 409.6 -71.2 Q 408 -71.2 406.4 -68.6 L 406.4 -68.6 L 406.4 -68.6 Q 404.8 -66 404.3 -62.6 L 404.3 -62.6 L 400.9 -42.2 L 387.7 -41 L 394.2 -74.9 L 404.8 -76.2 L 403.6 -69.7 L 403.6 -69.7 Q 406.8 -76.2 413.8 -76.2 L 413.8 -76.2 L 413.8 -76.2 Q 417.5 -76.2 419.5 -74.2 L 419.5 -74.2 L 419.5 -74.2 Q 421.5 -72.3 421.5 -68.4 L 421.5 -68.4 L 421.5 -68.4 Q 421.5 -64.5 419 -62 L 419 -62 L 419 -62 Q 416.4 -59.5 411.9 -59.5 L 411.9 -59.5 L 411.9 -59.5 Q 410 -59.5 409.3 -60.2 Z M 442.9 -49.5 L 442.9 -49.5 L 442.9 -49.5 Q 439.6 -46 433.5 -46 L 433.5 -46 L 433.5 -46 Q 425.9 -46 424.3 -51.6 L 424.3 -51.6 L 424.3 -51.6 Q 423.8 -53.3 423.8 -55.1 L 423.8 -55.1 L 423.8 -55.1 Q 423.8 -57 424.2 -58.9 L 424.2 -58.9 L 427.2 -74.9 L 440.2 -76.2 L 436.6 -57.5 L 436.6 -57.5 Q 436.5 -56.7 436.3 -55.8 L 436.3 -55.8 L 436.3 -55.8 Q 436.1 -54.9 436.1 -54 L 436.1 -54 L 436.1 -54 Q 436.1 -53.1 436.5 -52.5 L 436.5 -52.5 L 436.5 -52.5 Q 436.8 -51.8 437.2 -51.5 L 437.2 -51.5 L 437.2 -51.5 Q 438 -50.9 439.4 -50.9 L 439.4 -50.9 L 439.4 -50.9 Q 440.7 -50.9 441.9 -52.6 L 441.9 -52.6 L 441.9 -52.6 Q 443.1 -54.3 443.7 -57.2 L 443.7 -57.2 L 447.2 -74.9 L 459.8 -76.2 L 455 -51 L 455 -51 Q 452.6 -38.7 447.8 -33.9 L 447.8 -33.9 L 447.8 -33.9 Q 445.3 -31.4 442.1 -30.4 L 442.1 -30.4 L 442.1 -30.4 Q 438.8 -29.4 434.7 -29.4 L 434.7 -29.4 L 434.7 -29.4 Q 427.9 -29.4 424.1 -31.5 L 424.1 -31.5 L 424.1 -31.5 Q 420.3 -33.6 420.3 -37.1 L 420.3 -37.1 L 420.3 -37.1 Q 420.3 -39.7 422.2 -41.3 L 422.2 -41.3 L 422.2 -41.3 Q 424.2 -42.8 427.3 -42.8 L 427.3 -42.8 L 427.3 -42.8 Q 430 -42.8 432 -41.6 L 432 -41.6 L 432 -41.6 Q 433.3 -40.9 433.8 -40 L 433.8 -40 L 433.8 -40 Q 432.4 -38.7 432.4 -36.6 L 432.4 -36.6 L 432.4 -36.6 Q 432.4 -33.8 434.9 -33.8 L 434.9 -33.8 L 434.9 -33.8 Q 439.1 -33.8 441.6 -43.5 L 441.6 -43.5 L 441.6 -43.5 Q 442.3 -46.4 442.9 -49.5 Z" fill="url(#editing-sticker-gradient)" stroke="#ce64a6" stroke-width="2.5"></path></g></g><style>text {
  font-size: 64px;
  font-family: Arial Black;
  dominant-baseline: central;
  text-anchor: middle;
}</style></svg>